<?xml version="1.0" standalone="no"?>
<!DOCTYPE svg PUBLIC "-//W3C//DTD SVG 20010904//EN"
 "http://www.w3.org/TR/2001/REC-SVG-20010904/DTD/svg10.dtd">
<svg version="1.0" xmlns="http://www.w3.org/2000/svg"
 width="1408.000000pt" height="768.000000pt" viewBox="0 0 1408.000000 768.000000"
 preserveAspectRatio="xMidYMid meet">

<g transform="translate(0.000000,768.000000) scale(0.100000,-0.100000)"
fill="#000000" stroke="none">
<path d="M6795 5478 l-50 -53 51 48 c27 26 54 44 59 40 4 -5 5 -2 1 5 -4 6 -8
12 -9 12 -2 0 -25 -24 -52 -52z"/>
<path d="M6890 5465 c13 -14 26 -25 28 -25 3 0 -5 11 -18 25 -13 14 -26 25
-28 25 -3 0 5 -11 18 -25z"/>
<path d="M8060 5356 c0 -2 8 -10 18 -17 15 -13 16 -12 3 4 -13 16 -21 21 -21
13z"/>
<path d="M8101 5303 c7 -12 15 -20 18 -17 3 2 -3 12 -13 22 -17 16 -18 16 -5
-5z"/>
<path d="M6069 4493 c-13 -16 -12 -17 4 -4 16 13 21 21 13 21 -2 0 -10 -8 -17
-17z"/>
<path d="M6094 4419 c-32 -28 -63 -55 -68 -60 -5 -5 61 -77 156 -172 l166
-164 79 79 78 79 -134 129 c-76 75 -142 130 -153 130 -10 0 -29 7 -42 15 -22
14 -26 13 -82 -36z m140 5 c24 -9 19 -19 -9 -19 -14 0 -25 6 -25 13 0 13 10
15 34 6z m-138 -48 c0 -14 -3 -23 -7 -20 -4 2 -10 0 -14 -6 -3 -5 2 -10 12
-10 15 0 16 -2 3 -10 -11 -7 -11 -10 -2 -10 7 0 10 -5 6 -11 -4 -7 -16 -2 -33
15 l-26 26 30 25 c17 13 30 24 31 25 0 0 0 -11 0 -24z m149 6 c-3 -3 -11 0
-18 7 -9 10 -8 11 6 5 10 -3 15 -9 12 -12z m158 -164 c-30 -34 -35 -46 -22
-54 8 -4 9 -3 5 4 -4 7 -2 12 3 12 6 0 11 -6 11 -12 1 -8 6 -6 14 4 11 15 15
16 32 3 18 -13 17 -15 -20 -54 -31 -32 -42 -37 -55 -29 -20 12 -23 48 -3 41 7
-3 11 -12 8 -20 -4 -11 -1 -11 14 -3 11 6 20 15 20 20 0 5 9 12 20 15 11 3 20
11 20 17 0 6 -6 6 -15 -2 -8 -7 -21 -10 -29 -7 -7 3 -18 1 -22 -3 -5 -5 -15
-5 -24 0 -10 6 -11 10 -3 10 7 0 10 7 7 15 -5 12 -10 13 -20 4 -8 -6 -11 -16
-7 -22 3 -5 1 -7 -5 -3 -6 3 -13 2 -17 -4 -3 -5 -2 -10 3 -10 5 0 9 -7 9 -15
0 -11 -4 -12 -11 -5 -5 5 -17 10 -25 10 -14 0 -14 -1 -1 -10 13 -9 13 -10 0
-10 -9 0 -33 18 -54 39 -36 36 -37 39 -17 46 22 7 61 -9 61 -25 0 -6 8 -10 17
-10 13 0 10 7 -12 30 -26 27 -28 34 -7 28 4 -2 6 -7 4 -12 -2 -5 4 -6 13 -3 8
4 15 2 15 -2 0 -5 7 -12 15 -15 9 -3 15 -1 14 7 -3 23 1 37 11 37 6 0 10 -7
10 -15 0 -8 5 -15 11 -15 6 0 8 7 5 16 -3 8 -2 12 4 9 17 -11 31 5 17 19 -6 8
-15 12 -19 9 -10 -5 -10 11 -1 21 4 3 16 -2 27 -13 l20 -21 -21 -22z"/>
<path d="M5380 4159 c-7 -11 -10 -23 -7 -25 2 -2 9 7 15 21 14 30 7 33 -8 4z"/>
<path d="M5945 4110 c27 -27 51 -50 54 -50 3 0 -17 23 -44 50 -27 28 -51 50
-54 50 -3 0 17 -22 44 -50z"/>
<path d="M6570 3964 l-81 -78 25 -24 25 -25 48 18 c26 10 76 32 111 48 59 28
62 30 43 43 -11 8 -35 32 -54 55 l-35 41 -82 -78z m101 39 c12 -14 12 -16 -1
-11 -8 3 -26 1 -40 -4 -24 -9 -24 -9 -5 11 22 25 29 26 46 4z m57 -69 c-10
-10 -28 6 -28 24 0 15 1 15 17 -1 9 -9 14 -19 11 -23z"/>
<path d="M5800 4026 c0 -11 50 -106 55 -106 3 0 -7 24 -21 53 -28 55 -34 65
-34 53z"/>
<path d="M6228 4023 c7 -3 16 -2 19 1 4 3 -2 6 -13 5 -11 0 -14 -3 -6 -6z"/>
<path d="M6375 3958 c-33 -35 -48 -52 -33 -39 17 15 33 21 44 17 17 -7 44 9
44 27 0 5 -9 2 -20 -8 -29 -26 -25 -9 5 21 21 21 33 44 22 44 -1 0 -29 -28
-62 -62z"/>
<path d="M5800 3956 c6 -17 6 -26 0 -26 -6 0 -10 5 -10 12 0 6 -3 8 -6 5 -4
-4 -1 -13 5 -21 8 -10 9 -16 1 -21 -5 -3 -10 -2 -10 2 0 5 -7 18 -15 29 -12
15 -12 11 2 -18 l16 -38 16 23 c8 12 20 25 25 29 7 5 7 8 -1 8 -7 0 -13 6 -13
14 0 8 -4 18 -10 21 -7 4 -7 -3 0 -19z"/>
<path d="M6435 3940 c-16 -17 -24 -30 -19 -30 13 0 59 48 52 55 -2 3 -17 -9
-33 -25z"/>
<path d="M5291 3924 c0 -11 3 -14 6 -6 3 7 2 16 -1 19 -3 4 -6 -2 -5 -13z"/>
<path d="M5276 3869 c-10 -54 -6 -162 8 -218 16 -57 32 -84 24 -39 -3 15 -1
25 4 22 4 -3 12 5 17 18 6 13 10 17 11 8 0 -12 3 -11 11 3 8 13 14 15 30 7 16
-9 21 -7 29 16 6 15 8 30 4 33 -5 6 -9 7 -36 10 -9 1 -8 4 2 11 17 11 6 13
-27 4 -13 -4 -21 -10 -18 -13 2 -4 -1 -8 -8 -8 -7 0 -21 -4 -31 -9 -18 -7 -19
-3 -13 89 7 99 4 121 -7 66z"/>
<path d="M5460 3877 c0 -27 39 -103 63 -124 l22 -18 -18 22 c-10 12 -29 48
-43 80 -13 32 -24 50 -24 40z"/>
<path d="M6215 3805 l-90 -84 65 15 c57 13 71 21 115 67 28 28 33 36 13 17
-37 -33 -38 -33 -52 -14 -13 17 -12 22 17 52 56 58 24 33 -68 -53z"/>
<path d="M5356 3775 c-3 -8 -1 -15 4 -15 6 0 10 7 10 15 0 8 -2 15 -4 15 -2 0
-6 -7 -10 -15z"/>
<path d="M5959 3758 c22 -37 18 -51 -7 -26 -7 7 -12 8 -12 4 0 -5 -6 -3 -14 3
-10 9 -16 9 -21 1 -5 -8 -14 -6 -28 7 -18 16 -17 14 3 -14 20 -28 30 -33 64
-33 64 0 68 10 28 55 l-35 40 22 -37z"/>
<path d="M7485 3708 c-81 -50 -425 -225 -523 -265 l-54 -22 26 -34 c14 -18 44
-48 66 -66 l40 -32 0 34 c0 34 2 35 133 102 136 70 385 228 393 250 3 7 4 29
2 48 l-3 35 -80 -50z"/>
<path d="M5320 3555 c0 -16 65 -93 107 -127 52 -42 142 -83 238 -109 64 -17
117 -23 265 -26 102 -3 182 -2 179 1 -3 3 -86 8 -185 10 -126 3 -195 9 -234
20 -30 9 -63 19 -73 21 -48 11 -58 17 -48 29 13 15 2 31 -27 40 -20 7 -21 10
-10 23 11 14 11 15 -2 11 -8 -3 -21 2 -27 11 -10 13 -14 13 -21 3 -7 -11 -12
-10 -26 3 -9 9 -16 12 -16 6 0 -5 -10 -8 -22 -6 -22 4 -35 17 -77 73 -11 15
-20 23 -21 17z"/>
<path d="M5543 3527 c1 -7 -4 -11 -10 -9 -7 1 -13 -2 -13 -8 0 -5 -6 -10 -12
-10 -7 0 -22 -7 -32 -15 -18 -13 -17 -14 12 -10 18 2 32 0 32 -4 0 -4 14 -8
32 -9 18 -2 40 -10 49 -18 16 -14 18 -13 24 7 6 17 9 19 17 8 8 -12 9 -12 6 0
-2 8 -13 19 -24 25 -10 6 -22 16 -27 23 -4 7 -15 9 -24 6 -10 -4 -14 -2 -10 4
4 6 0 13 -8 17 -8 3 -14 0 -12 -7z"/>
<path d="M5560 3435 c-14 -8 -20 -14 -14 -15 5 0 19 7 30 15 24 18 16 19 -16
0z"/>
<path d="M6860 3400 c-8 -5 -10 -10 -5 -10 6 0 17 5 25 10 8 5 11 10 5 10 -5
0 -17 -5 -25 -10z"/>
<path d="M6766 3362 c-3 -5 9 -22 27 -38 l32 -29 -28 31 c-15 17 -24 33 -20
37 3 4 4 7 0 7 -3 0 -8 -4 -11 -8z"/>
<path d="M6428 3353 c7 -3 16 -2 19 1 4 3 -2 6 -13 5 -11 0 -14 -3 -6 -6z"/>
<path d="M6378 3343 c6 -2 18 -2 25 0 6 3 1 5 -13 5 -14 0 -19 -2 -12 -5z"/>
<path d="M6328 3333 c6 -2 18 -2 25 0 6 3 1 5 -13 5 -14 0 -19 -2 -12 -5z"/>
<path d="M6288 3323 c7 -3 16 -2 19 1 4 3 -2 6 -13 5 -11 0 -14 -3 -6 -6z"/>
<path d="M6153 3303 c9 -2 23 -2 30 0 6 3 -1 5 -18 5 -16 0 -22 -2 -12 -5z"/>
<path d="M6639 3301 c7 -5 10 -14 7 -20 -4 -6 0 -11 8 -11 9 0 16 -4 16 -9 0
-5 15 -1 33 8 l33 16 -40 12 c-50 15 -78 17 -57 4z"/>
<path d="M6511 3281 c-16 -10 64 -42 178 -72 83 -21 115 -25 91 -10 -8 6 -17
8 -21 5 -4 -2 -10 0 -14 6 -3 5 -18 10 -32 10 -17 0 -23 4 -20 14 4 10 0 12
-14 9 -10 -3 -19 -1 -19 5 0 6 -20 10 -48 10 -55 -1 -83 9 -61 23 11 7 9 9 -6
9 -11 0 -26 -4 -34 -9z"/>
<path d="M6765 3270 c11 -5 29 -9 40 -9 l20 0 -20 9 c-11 5 -29 9 -40 9 l-20
0 20 -9z"/>
<path d="M7288 3193 c6 -2 18 -2 25 0 6 3 1 5 -13 5 -14 0 -19 -2 -12 -5z"/>
<path d="M6825 3181 c17 -5 48 -9 71 -10 31 -1 48 -8 75 -34 59 -57 65 -59 80
-40 11 15 11 16 0 6 -11 -9 -22 -4 -53 25 -54 50 -55 50 -134 56 -47 4 -59 3
-39 -3z"/>
<path d="M3990 2184 l0 -456 223 4 223 3 77 38 c140 69 197 171 205 367 7 189
-29 311 -118 394 -94 88 -166 106 -427 106 l-183 0 0 -456z m415 286 c47 -18
93 -69 112 -124 23 -65 25 -248 4 -320 -18 -61 -74 -120 -128 -135 -21 -6 -80
-11 -130 -11 l-93 0 0 307 0 306 103 -6 c56 -3 116 -11 132 -17z"/>
<path d="M4890 2185 l0 -455 305 0 305 0 0 75 0 75 -215 0 -215 0 0 118 0 117
187 0 188 0 3 73 3 72 -128 1 c-70 0 -156 0 -190 0 l-63 -1 0 115 0 115 215 0
216 0 -3 73 -3 72 -302 3 -303 2 0 -455z"/>
<path d="M5905 2628 c-2 -7 -61 -177 -131 -378 -69 -201 -137 -396 -150 -434
-13 -38 -24 -73 -24 -78 0 -4 40 -8 89 -8 l90 0 36 115 36 115 166 -2 166 -3
37 -110 37 -110 96 -3 96 -3 -21 58 c-12 32 -83 236 -158 453 l-138 395 -111
3 c-84 2 -113 -1 -116 -10z m174 -340 l57 -183 -114 -3 c-63 -1 -117 -1 -119
2 -2 2 22 87 54 189 31 103 59 184 61 182 2 -2 30 -86 61 -187z"/>
<path d="M6580 2184 l0 -456 223 4 c200 4 228 6 278 26 108 43 189 142 220
272 17 70 16 228 -1 300 -40 169 -141 270 -300 300 -29 5 -135 10 -236 10
l-184 0 0 -456z m441 275 c33 -18 51 -38 74 -83 29 -57 30 -64 30 -190 0 -101
-4 -141 -18 -177 -36 -94 -104 -129 -253 -129 l-94 0 0 306 0 307 109 -5 c90
-5 117 -10 152 -29z"/>
<path d="M7020 1330 c0 -92 4 -139 10 -135 6 4 10 60 10 135 0 75 -4 131 -10
135 -6 4 -10 -43 -10 -135z"/>
<path d="M4903 1450 c-12 -5 -27 -19 -33 -30 -16 -30 -16 -105 0 -135 18 -33
67 -49 107 -35 28 10 31 16 35 56 l3 44 -37 0 c-21 0 -38 -4 -38 -10 0 -5 9
-10 21 -10 31 0 23 -54 -9 -58 -39 -6 -62 24 -62 79 0 74 46 104 90 57 11 -12
22 -19 26 -16 12 12 -7 45 -32 56 -29 14 -41 14 -71 2z"/>
<path d="M7585 1453 c-32 -8 -44 -22 -55 -64 -17 -61 2 -117 45 -135 69 -29
121 21 113 107 -7 69 -47 105 -103 92z m59 -45 c33 -46 10 -138 -34 -138 -32
0 -50 28 -50 80 0 74 49 108 84 58z"/>
<path d="M8334 1450 c-36 -14 -54 -50 -54 -105 0 -64 27 -95 83 -95 54 0 77
30 77 100 0 43 -5 61 -20 78 -12 12 -25 22 -30 22 -4 0 -14 2 -22 4 -7 3 -23
1 -34 -4z m58 -37 c24 -21 25 -99 1 -125 -37 -42 -83 -4 -83 69 0 65 41 93 82
56z"/>
<path d="M8513 1450 c-24 -10 -39 -50 -29 -75 3 -9 25 -24 50 -34 51 -22 62
-36 46 -56 -18 -22 -57 -18 -74 7 -11 16 -19 19 -26 12 -15 -15 19 -53 50 -55
50 -4 69 1 80 22 21 38 4 69 -51 91 -40 17 -49 25 -47 42 4 27 43 33 68 11 27
-25 46 -15 23 12 -21 26 -59 36 -90 23z"/>
<path d="M9994 1450 c-35 -14 -54 -50 -54 -101 0 -81 58 -126 120 -94 67 35
58 170 -13 195 -16 5 -30 10 -31 9 -1 0 -11 -4 -22 -9z m60 -36 c10 -10 16
-33 16 -64 0 -74 -49 -108 -84 -58 -47 67 14 176 68 122z"/>
<path d="M3990 1350 c0 -82 3 -100 15 -100 12 0 15 18 15 100 0 82 -3 100 -15
100 -12 0 -15 -18 -15 -100z"/>
<path d="M4070 1350 c0 -81 3 -100 15 -100 11 0 15 17 17 73 l3 72 45 -72 c28
-46 51 -73 62 -73 16 0 18 11 18 100 0 81 -3 100 -15 100 -11 0 -15 -17 -17
-72 l-3 -71 -45 71 c-27 43 -52 71 -62 72 -16 0 -18 -11 -18 -100z"/>
<path d="M4260 1440 c0 -5 14 -10 30 -10 l30 0 0 -90 c0 -72 3 -90 15 -90 11
0 15 19 17 88 l3 87 33 3 c64 6 30 22 -48 22 -47 0 -80 -4 -80 -10z"/>
<path d="M4450 1350 l0 -100 65 0 c37 0 65 4 65 10 0 6 -22 10 -50 10 l-50 0
0 35 c0 35 0 35 46 35 59 0 55 24 -4 28 -39 3 -42 5 -42 33 0 28 1 29 50 29
28 0 50 5 50 10 0 6 -28 10 -65 10 l-65 0 0 -100z"/>
<path d="M4620 1350 l0 -100 60 0 c33 0 60 4 60 10 0 6 -20 10 -45 10 l-45 0
0 90 c0 73 -3 90 -15 90 -12 0 -15 -18 -15 -100z"/>
<path d="M4780 1350 c0 -82 3 -100 15 -100 12 0 15 18 15 100 0 82 -3 100 -15
100 -12 0 -15 -18 -15 -100z"/>
<path d="M5060 1350 l0 -100 65 0 c37 0 65 4 65 10 0 6 -22 10 -50 10 l-50 0
0 35 c0 35 0 35 45 35 33 0 45 4 45 15 0 11 -12 15 -45 15 -43 0 -45 1 -45 30
0 29 1 30 50 30 28 0 50 5 50 10 0 6 -28 10 -65 10 l-65 0 0 -100z"/>
<path d="M5230 1350 c0 -81 3 -100 15 -100 11 0 15 17 17 73 l3 72 44 -72 c29
-49 49 -73 62 -73 17 0 19 9 19 100 0 82 -3 100 -15 100 -12 0 -15 -15 -15
-71 0 -38 -4 -68 -9 -65 -5 3 -26 35 -47 71 -24 40 -46 65 -56 65 -16 0 -18
-11 -18 -100z"/>
<path d="M5420 1440 c0 -5 14 -10 30 -10 l30 0 0 -90 c0 -73 3 -90 15 -90 12
0 15 17 15 90 l0 90 35 0 c19 0 35 5 35 10 0 6 -33 10 -80 10 -47 0 -80 -4
-80 -10z"/>
<path d="M5610 1350 l0 -100 65 0 c37 0 65 4 65 10 0 6 -22 10 -50 10 l-50 0
0 35 c0 35 0 35 46 35 59 0 55 24 -4 28 -39 3 -42 5 -42 33 0 28 1 29 50 29
28 0 50 5 50 10 0 6 -28 10 -65 10 l-65 0 0 -100z"/>
<path d="M5833 1438 c2 -7 17 -53 33 -101 38 -119 54 -117 101 12 18 52 31 96
29 99 -15 14 -34 -14 -55 -82 l-25 -76 -29 80 c-19 52 -34 80 -44 80 -8 0 -13
-6 -10 -12z"/>
<path d="M6030 1350 c0 -94 1 -100 20 -100 19 0 20 6 19 100 -2 90 -4 100 -21
100 -16 0 -18 -10 -18 -100z"/>
<path d="M6100 1440 c0 -5 14 -10 30 -10 l30 0 0 -90 c0 -73 3 -90 15 -90 12
0 15 17 15 90 l0 90 35 0 c19 0 35 5 35 10 0 6 -33 10 -80 10 -47 0 -80 -4
-80 -10z"/>
<path d="M6290 1350 c0 -82 3 -100 15 -100 11 0 15 11 15 40 0 35 3 40 23 40
18 0 28 -10 42 -40 12 -26 25 -40 37 -40 18 0 18 2 -2 41 -20 37 -20 42 -6 58
9 10 16 29 16 44 0 41 -24 57 -86 57 l-54 0 0 -100z m103 59 c17 -28 1 -49
-38 -49 -33 0 -35 2 -35 36 0 34 1 35 31 32 18 -2 37 -10 42 -19z"/>
<path d="M6480 1350 c0 -82 3 -100 15 -100 12 0 15 18 15 100 0 82 -3 100 -15
100 -12 0 -15 -18 -15 -100z"/>
<path d="M6560 1350 c0 -81 3 -100 15 -100 11 0 15 17 17 73 l3 72 45 -72 c28
-45 52 -73 63 -73 15 0 17 11 17 100 0 81 -3 100 -15 100 -11 0 -15 -17 -17
-72 l-3 -73 -45 72 c-27 44 -52 72 -62 73 -16 0 -18 -11 -18 -100z"/>
<path d="M6770 1350 l0 -100 65 0 c75 0 89 17 18 22 -46 3 -48 4 -51 36 -3 32
-3 32 42 32 34 0 46 4 46 15 0 11 -12 15 -45 15 -43 0 -45 1 -45 30 0 29 1 30
50 30 28 0 50 5 50 10 0 6 -28 10 -65 10 l-65 0 0 -100z"/>
<path d="M7160 1350 c0 -93 1 -100 20 -100 17 0 20 7 20 40 0 40 0 40 39 40
47 0 71 20 71 60 0 45 -23 60 -91 60 l-59 0 0 -100z m114 58 c16 -26 -4 -52
-43 -56 -30 -3 -31 -2 -31 38 0 40 1 41 31 38 18 -2 37 -11 43 -20z"/>
<path d="M7350 1350 c0 -82 3 -100 15 -100 11 0 15 11 15 40 0 33 3 40 20 40
13 0 27 -14 40 -40 13 -26 27 -40 40 -40 19 0 19 1 -2 36 -20 34 -20 37 -5 64
37 62 10 100 -71 100 l-52 0 0 -100z m98 68 c26 -26 -1 -68 -44 -68 -21 0 -24
4 -24 40 0 37 2 40 28 40 15 0 33 -5 40 -12z"/>
<path d="M7730 1350 l0 -100 50 0 c71 0 100 29 100 100 0 71 -29 100 -100 100
l-50 0 0 -100z m98 64 c20 -14 23 -23 20 -67 -3 -46 -6 -53 -31 -65 -48 -23
-57 -11 -57 73 0 71 1 75 23 75 12 0 33 -7 45 -16z"/>
<path d="M7920 1371 c0 -96 17 -125 73 -125 62 0 77 24 77 121 0 67 -3 83 -15
83 -12 0 -15 -15 -15 -78 0 -83 -9 -102 -47 -102 -32 0 -43 28 -43 109 0 56
-3 71 -15 71 -12 0 -15 -15 -15 -79z"/>
<path d="M8100 1441 c0 -6 15 -11 33 -13 l32 -3 -4 -87 c-3 -84 -2 -88 18 -88
19 0 20 5 18 88 l-2 87 33 3 c64 6 30 22 -48 22 -44 0 -80 -4 -80 -9z"/>
<path d="M8730 1350 l0 -100 65 0 c37 0 65 4 65 10 0 6 -22 10 -50 10 l-50 0
0 35 c0 35 0 35 45 35 33 0 45 4 45 15 0 11 -12 15 -45 15 -43 0 -45 1 -45 30
0 29 1 30 50 30 28 0 50 5 50 10 0 6 -28 10 -65 10 l-65 0 0 -100z"/>
<path d="M8898 1350 c-3 -91 -1 -100 15 -100 17 0 18 8 15 70 -2 39 0 70 5 70
4 0 7 -5 7 -11 0 -7 10 -38 22 -71 14 -40 26 -58 36 -56 8 2 27 37 43 78 l28
75 0 -77 c1 -62 4 -78 16 -78 12 0 15 18 15 101 0 98 -1 100 -22 97 -17 -2
-28 -18 -48 -70 -14 -36 -27 -69 -30 -72 -3 -3 -18 28 -34 69 -20 57 -32 75
-46 75 -17 0 -19 -10 -22 -100z"/>
<path d="M9220 1350 c0 -82 3 -100 15 -100 11 0 15 11 15 40 l0 40 43 0 c52 0
67 13 67 60 0 49 -15 60 -82 60 l-58 0 0 -100z m98 68 c17 -17 15 -55 -4 -62
-9 -3 -27 -6 -40 -6 -21 0 -24 4 -24 40 0 37 2 40 28 40 15 0 33 -5 40 -12z"/>
<path d="M9400 1350 c0 -82 3 -100 15 -100 11 0 15 11 15 40 0 35 3 40 23 40
18 0 28 -10 42 -40 12 -26 25 -40 37 -40 18 0 18 2 -3 40 -21 37 -21 41 -6 58
9 10 17 30 17 45 0 41 -24 57 -86 57 l-54 0 0 -100z m98 68 c20 -20 14 -48
-15 -59 -38 -14 -53 -5 -53 36 0 32 3 35 28 35 15 0 33 -5 40 -12z"/>
<path d="M9631 1428 c-22 -59 -61 -170 -61 -174 0 -2 7 -4 15 -4 8 0 17 11 21
25 5 21 12 25 45 25 32 0 41 -5 51 -25 15 -32 42 -34 32 -2 -48 155 -83 208
-103 155z m48 -95 c1 -7 -10 -13 -24 -13 -28 0 -31 11 -13 61 l11 33 13 -34
c7 -19 13 -41 13 -47z"/>
<path d="M9760 1440 c0 -5 25 -10 55 -12 l55 -3 -55 -79 c-30 -44 -55 -83 -55
-88 0 -4 34 -8 75 -8 43 0 75 4 75 10 0 6 -25 10 -56 10 l-55 0 55 81 c31 44
56 85 56 90 0 5 -34 9 -75 9 -41 0 -75 -4 -75 -10z"/>
</g>
</svg>
